<svg width="25" height="25" viewBox="0 0 25 25" fill="none" xmlns="http://www.w3.org/2000/svg">
<path d="M7.29167 2.08301H8.33333C8.6096 2.08301 8.87455 2.19275 9.0699 2.3881C9.26525 2.58346 9.375 2.84841 9.375 3.12467V4.16634H14.5833V3.12467C14.5833 2.84841 14.6931 2.58346 14.8884 2.3881C15.0838 2.19275 15.3487 2.08301 15.625 2.08301H16.6667C16.9429 2.08301 17.2079 2.19275 17.4032 2.3881C17.5986 2.58346 17.7083 2.84841 17.7083 3.12467V4.16634C18.5371 4.16634 19.332 4.49558 19.918 5.08163C20.5041 5.66768 20.8333 6.46254 20.8333 7.29134V18.7497C20.8333 19.5785 20.5041 20.3733 19.918 20.9594C19.332 21.5454 18.5371 21.8747 17.7083 21.8747H6.25C5.4212 21.8747 4.62634 21.5454 4.04029 20.9594C3.45424 20.3733 3.125 19.5785 3.125 18.7497V7.29134C3.125 6.46254 3.45424 5.66768 4.04029 5.08163C4.62634 4.49558 5.4212 4.16634 6.25 4.16634V3.12467C6.25 2.84841 6.35975 2.58346 6.5551 2.3881C6.75045 2.19275 7.0154 2.08301 7.29167 2.08301ZM15.625 4.16634H16.6667V3.12467H15.625V4.16634ZM8.33333 4.16634V3.12467H7.29167V4.16634H8.33333ZM6.25 5.20801C5.69747 5.20801 5.16756 5.4275 4.77686 5.8182C4.38616 6.2089 4.16667 6.73881 4.16667 7.29134V8.33301H19.7917V7.29134C19.7917 6.73881 19.5722 6.2089 19.1815 5.8182C18.7908 5.4275 18.2609 5.20801 17.7083 5.20801H6.25ZM4.16667 18.7497C4.16667 19.3022 4.38616 19.8321 4.77686 20.2228C5.16756 20.6135 5.69747 20.833 6.25 20.833H17.7083C18.2609 20.833 18.7908 20.6135 19.1815 20.2228C19.5722 19.8321 19.7917 19.3022 19.7917 18.7497V9.37467H4.16667V18.7497ZM12.5 13.5413H17.7083V18.7497H12.5V13.5413ZM13.5417 14.583V17.708H16.6667V14.583H13.5417Z" fill="#484D51"/>
</svg>
