<svg width="24" height="25" viewBox="0 0 24 25" fill="none" xmlns="http://www.w3.org/2000/svg">
<path d="M16.4316 7.46937L15.1838 5.49781C14.9208 5.19125 14.5603 5 14.1562 5H9.84375C9.43969 5 9.07922 5.19125 8.81625 5.49781L7.56844 7.46937C7.30547 7.77641 6.96656 8 6.5625 8H3.75C3.35218 8 2.97064 8.15804 2.68934 8.43934C2.40804 8.72064 2.25 9.10218 2.25 9.5V18.5C2.25 18.8978 2.40804 19.2794 2.68934 19.5607C2.97064 19.842 3.35218 20 3.75 20H20.25C20.6478 20 21.0294 19.842 21.3107 19.5607C21.592 19.2794 21.75 18.8978 21.75 18.5V9.5C21.75 9.10218 21.592 8.72064 21.3107 8.43934C21.0294 8.15804 20.6478 8 20.25 8H17.4844C17.0789 8 16.6945 7.77641 16.4316 7.46937Z" stroke="black" stroke-width="1.7" stroke-linecap="round" stroke-linejoin="round"/>
<path d="M12 17C14.0711 17 15.75 15.3211 15.75 13.25C15.75 11.1789 14.0711 9.5 12 9.5C9.92893 9.5 8.25 11.1789 8.25 13.25C8.25 15.3211 9.92893 17 12 17Z" stroke="black" stroke-width="1.7" stroke-miterlimit="10"/>
<path d="M5.8125 7.90625V6.875H4.6875V7.90625" stroke="black" stroke-width="1.7" stroke-linecap="round" stroke-linejoin="round"/>
</svg>
