<svg width="36" height="36" viewBox="0 0 36 36" fill="none" xmlns="http://www.w3.org/2000/svg">
<path d="M18 25.5C18.425 25.5 18.7815 25.356 19.0695 25.068C19.3575 24.78 19.501 24.424 19.5 24C19.499 23.576 19.355 23.22 19.068 22.932C18.781 22.644 18.425 22.5 18 22.5C17.575 22.5 17.219 22.644 16.932 22.932C16.645 23.22 16.501 23.576 16.5 24C16.499 24.424 16.643 24.7805 16.932 25.0695C17.221 25.3585 17.577 25.502 18 25.5ZM18 19.5C18.425 19.5 18.7815 19.356 19.0695 19.068C19.3575 18.78 19.501 18.424 19.5 18V12C19.5 11.575 19.356 11.219 19.068 10.932C18.78 10.645 18.424 10.501 18 10.5C17.576 10.499 17.22 10.643 16.932 10.932C16.644 11.221 16.5 11.577 16.5 12V18C16.5 18.425 16.644 18.7815 16.932 19.0695C17.22 19.3575 17.576 19.501 18 19.5ZM13.6125 31.5C13.2125 31.5 12.8315 31.425 12.4695 31.275C12.1075 31.125 11.7885 30.9125 11.5125 30.6375L5.3625 24.4875C5.0875 24.2125 4.875 23.8935 4.725 23.5305C4.575 23.1675 4.5 22.787 4.5 22.389V13.614C4.5 13.214 4.575 12.833 4.725 12.471C4.875 12.109 5.0875 11.79 5.3625 11.514L11.5125 5.364C11.7875 5.089 12.1065 4.8765 12.4695 4.7265C12.8325 4.5765 13.2135 4.501 13.6125 4.5H22.3875C22.7875 4.5 23.169 4.575 23.532 4.725C23.895 4.875 24.2135 5.0875 24.4875 5.3625L30.6375 11.5125C30.9125 11.7875 31.125 12.1065 31.275 12.4695C31.425 12.8325 31.5 13.2135 31.5 13.6125V22.3875C31.5 22.7875 31.425 23.169 31.275 23.532C31.125 23.895 30.9125 24.2135 30.6375 24.4875L24.4875 30.6375C24.2125 30.9125 23.8935 31.125 23.5305 31.275C23.1675 31.425 22.7865 31.5 22.3875 31.5H13.6125ZM13.65 28.5H22.35L28.5 22.35V13.65L22.35 7.5H13.65L7.5 13.65V22.35L13.65 28.5Z" fill="#6450F0"/>
</svg>
