<svg width="36" height="36" viewBox="0 0 36 36" fill="none" xmlns="http://www.w3.org/2000/svg">
<path d="M18 18.75C16.6076 18.75 15.2723 19.3031 14.2877 20.2877C13.3031 21.2723 12.75 22.6076 12.75 24C12.75 25.3924 13.3031 26.7277 14.2877 27.7123C15.2723 28.6969 16.6076 29.25 18 29.25C19.3924 29.25 20.7277 28.6969 21.7123 27.7123C22.6969 26.7277 23.25 25.3924 23.25 24C23.25 22.6076 22.6969 21.2723 21.7123 20.2877C20.7277 19.3031 19.3924 18.75 18 18.75ZM15.75 24C15.75 23.4033 15.9871 22.831 16.409 22.409C16.831 21.9871 17.4033 21.75 18 21.75C18.5967 21.75 19.169 21.9871 19.591 22.409C20.0129 22.831 20.25 23.4033 20.25 24C20.25 24.5967 20.0129 25.169 19.591 25.591C19.169 26.0129 18.5967 26.25 18 26.25C17.4033 26.25 16.831 26.0129 16.409 25.591C15.9871 25.169 15.75 24.5967 15.75 24Z" fill="#6450F0"/>
<path d="M26.289 7.67378L21.5205 0.988281L3.987 14.9953L3.015 14.9848V14.9998H2.25V32.9998H33.75V14.9998H32.307L29.436 6.60128L26.289 7.67378ZM29.1375 14.9998H14.0955L25.299 11.1808L27.582 10.4503L29.1375 14.9998ZM23.325 8.68478L11.76 12.6268L20.919 5.30978L23.325 8.68478ZM5.25 27.2533V20.7433C5.88326 20.5198 6.45848 20.1574 6.93346 19.6827C7.40844 19.2079 7.77116 18.6329 7.995 17.9998H28.005C28.2287 18.6332 28.5913 19.2085 29.0663 19.6835C29.5413 20.1585 30.1166 20.5211 30.75 20.7448V27.2548C30.1166 27.4784 29.5413 27.8411 29.0663 28.3161C28.5913 28.7911 28.2287 29.3664 28.005 29.9998H7.998C7.77328 29.3663 7.40995 28.791 6.93453 28.3158C6.45911 27.8407 5.8836 27.4777 5.25 27.2533Z" fill="#6450F0"/>
</svg>
