<?xml version="1.0" encoding="UTF-8"?>
<!DOCTYPE svg PUBLIC "-//W3C//DTD SVG 1.1//EN" "http://www.w3.org/Graphics/SVG/1.1/DTD/svg11.dtd">
<!-- Creator: CorelDRAW -->
<svg xmlns="http://www.w3.org/2000/svg" xml:space="preserve" width="113.908mm" height="72.5321mm" version="1.1" style="shape-rendering:geometricPrecision; text-rendering:geometricPrecision; image-rendering:optimizeQuality; fill-rule:evenodd; clip-rule:evenodd"
viewBox="0 0 1207.98 769.19"
 xmlns:xlink="http://www.w3.org/1999/xlink"
 xmlns:xodm="http://www.corel.com/coreldraw/odm/2003">
 <defs>
  <style type="text/css">
   <![CDATA[
    .fil0 {fill:#FEFEFE}
   ]]>
  </style>
 </defs>
 <g id="Слой_x0020_1">
  <metadata id="CorelCorpID_0Corel-Layer"/>
  <g id="_2040242485088">
   <path class="fil0" d="M878.53 54.91c0,32.32 33.92,56.23 64.35,86.65 19.04,19.03 63.82,59.35 76.36,78.07l-741.45 -0.19c-82.32,0.29 -69.16,110 -10.11,110l892.26 0c24.89,0 48.04,-23.8 48.04,-61.77 0,-24.28 -42.36,-61.24 -57.48,-76.36l-135.55 -135.56c-18.96,-18.96 -47.92,-55.77 -81.51,-55.77 -31.02,0 -54.91,23.89 -54.91,54.91z"/>
   <path class="fil0" d="M-0 487.31c0,44.12 23.15,52.31 59.2,88.37 23.71,23.72 44.91,44.92 68.63,68.64l56.13 57.12c0.49,0.51 1.17,1.26 1.66,1.77l30.55 31.23c59.72,69.23 113.28,20.49 113.28,-20.62 0,-51.06 -105.11,-116.7 -137.27,-164.72l738.02 0.19c82.32,-0.29 69.16,-110 10.11,-110l-892.26 0c-21.43,0 -48.04,26.62 -48.04,48.05z"/>
  </g>
 </g>
</svg>
