<svg width="25" height="26" viewBox="0 0 25 26" fill="none" xmlns="http://www.w3.org/2000/svg">
<mask id="mask0_443_8581" style="mask-type:alpha" maskUnits="userSpaceOnUse" x="0" y="0" width="25" height="26">
<rect y="0.5" width="25" height="25" fill="#D9D9D9"/>
</mask>
<g mask="url(#mask0_443_8581)">
<path d="M9.375 11.9583H17.8906L15.2344 9.30208L16.6667 7.79167L21.875 13L16.6667 18.2083L15.2344 16.6979L17.8906 14.0417H9.375V11.9583ZM12.5 3.625V5.70833H5.20833V20.2917H12.5V22.375H5.20833C4.63542 22.375 4.14479 22.1712 3.73646 21.7635C3.32882 21.3552 3.125 20.8646 3.125 20.2917V5.70833C3.125 5.13542 3.32882 4.64479 3.73646 4.23646C4.14479 3.82882 4.63542 3.625 5.20833 3.625H12.5Z" fill="#F92E0A"/>
</g>
</svg>
